<?xml version="1.0" encoding="utf-8"?>
<!-- Generator: Adobe Illustrator 27.1.1, SVG Export Plug-In . SVG Version: 6.00 Build 0)  -->
<svg version="1.2" baseProfile="tiny" id="Capa_1" xmlns="http://www.w3.org/2000/svg" xmlns:xlink="http://www.w3.org/1999/xlink"
	 x="0px" y="0px" viewBox="0 0 271 1280" overflow="visible" xml:space="preserve">
<g>
	<path fill="#EC1D23" d="M10.27,499.08c0-132.97,0-265.93,0-398.9c0-8.56,0-9.05,8.23-9.19c17.91-0.31,35.77,0.01,53.63,2.57
		c32.45,4.65,61.33,17.57,87.5,36.66c16.71,12.19,31.41,26.63,44.03,43.25c7.94,10.46,15.93,20.91,22.04,32.42
		c6.55,12.32,12.88,24.84,17.64,38.07c5.52,15.36,10.17,30.99,13.09,47.02c1.89,10.34,3.44,20.81,3.66,31.41
		c2.93,140.58,0.4,281.17,1.38,421.75c0.07,9.43-1.91,17.91-5.94,26.38c-27.12,56.93-71.06,95.13-129.76,116.86
		c-35.19,13.03-71.73,18.7-109.17,19.29c-4.88,0.08-6.45-0.91-6.44-6.19C10.32,766.68,10.28,632.88,10.27,499.08z M173.45,520.76
		c0-0.01,0-0.01,0-0.02c14.66,0,29.31-0.06,43.97,0.05c3.13,0.02,4.51-0.85,4.45-4.2c-0.16-9.66,0.28-19.33-0.16-28.97
		c-0.89-19.82-10.23-32.67-27.06-37.75c-11.71-3.54-23.7-3.85-35.6-1.56c-21.21,4.09-31.55,15.48-33.3,37.03
		c-0.82,10.1-0.12,20.31-0.46,30.45c-0.14,4.08,1.4,5.07,5.19,5.03C144.8,520.66,159.12,520.76,173.45,520.76z M170.48,431.11
		c11.23,0.11,19.47-0.82,27.48-3.36c15.78-5.01,25.17-16.8,26.19-32.9c1.16-18.21-6.12-31.67-21.65-38.55
		c-17.72-7.85-36.04-7.62-54.13-1.66c-15.47,5.1-23.77,16.37-24.79,32.79c-1.08,17.41,5.98,30.6,20.65,37.75
		C153.38,429.63,163.21,431.25,170.48,431.11z M123.92,575.1c-0.65,5.84,2.52,10.05,8.29,12.59c2.28,1,4.59,1.99,6.96,2.72
		c25.89,8.03,51.79,16.01,77.69,23.99c2.34,0.72,5.13,2.16,5.42-2.09c0.21-3.21,4.17-7.29-2.53-9.01
		c-8.37-2.15-16.52-5.13-24.84-7.49c-2.89-0.82-4.05-2.13-4-5.19c0.17-9.82,0.2-19.64,0.04-29.46c-0.05-3.09,1.19-4.39,3.98-5.24
		c8.59-2.62,17.11-5.45,25.66-8.21c1.53-0.5,3.1-0.63,3.11-3.09c0.03-9.93-1.7-11.33-10.92-8.35c-1.27,0.41-2.54,0.78-3.81,1.18
		c-25.05,7.92-50.13,15.75-75.12,23.83C126.1,563.79,124.08,566.94,123.92,575.1z M162.93,774.65c10.36-0.34,22.88,0.7,35.33-0.86
		c13.75-1.73,22.1-8.7,24.78-21.01c1.58-7.23,1.67-14.53,0.34-21.84c-2.27-12.43-9.51-20.27-21.71-23.41
		c-4.51-1.16-9.12-1.93-13.83-1.93c-19.16,0.01-38.33,0.14-57.49-0.19c-5.11-0.09-5.18,2.45-5.09,6.11
		c0.09,3.46-0.32,6.39,4.99,6.28c16.83-0.32,33.66-0.12,50.49-0.12c5.5,0,10.98,0.05,16.44,1.02c9.85,1.75,14.61,6.47,16.24,16.26
		c0.61,3.66,0.47,7.29-0.08,10.94c-1.14,7.46-5.56,11.83-12.73,13.65c-5.7,1.45-11.53,1.67-17.37,1.68
		c-17.66,0.02-35.33,0.11-52.99-0.02c-3.58-0.03-5.42,0.92-4.93,4.76c0.12,0.98,0.14,2.01,0,2.99c-0.61,4.29,0.98,5.91,5.49,5.77
		C140.8,774.44,150.81,774.65,162.93,774.65z M224.31,657.1c0.12-3.04-0.6-8.47-2.34-13.73c-4.05-12.21-13.79-19.1-27.29-19.38
		c-11.95-0.25-20.26,5.97-24.73,18.63c-2.54,7.21-4.54,14.64-7.52,21.66c-3.41,8.02-8.46,10.45-16.7,9.31
		c-5.92-0.82-10.23-5.73-11.51-13.37c-1.47-8.79-0.53-17.37,3.75-25.22c2.84-5.2-1.24-5.69-4.05-7.41c-3.82-2.34-4.63,0.79-5.6,3.13
		c-4.28,10.36-6,21.09-4.14,32.25c2.29,13.76,11.38,22.89,23.73,23.85c14.41,1.12,23.03-4.83,28.01-19.42
		c0.91-2.67,1.56-5.44,2.42-8.13c1.27-3.96,2.34-8.01,4.02-11.79c3.54-7.98,9.69-11.08,18.18-9.61c7.05,1.22,11.71,6.7,12.55,14.79
		c1.04,9.97,0.17,19.66-4.74,28.61c-2.6,4.75,1.48,5.03,3.9,6.65c2.84,1.89,4.6,1.5,6.14-1.73
		C222.41,677.76,224.16,668.88,224.31,657.1z M224.25,308.07c0.15-5.21-0.51-10.32-2.03-15.3c-3.86-12.59-13.37-19.76-26.69-20.12
		c-12.87-0.35-21.04,5.54-25.67,18.69c-2.37,6.75-4.29,13.67-6.88,20.33c-3.31,8.52-8.55,11.69-16.43,10.65
		c-6.9-0.91-11.09-5.65-12.43-14.21c-1.39-8.84-0.11-17.33,4.06-25.22c2.56-4.85-1.61-4.97-3.97-6.58c-3.07-2.1-4.38-0.43-5.55,2.21
		c-4.74,10.64-6.38,21.73-4.38,33.19c1.55,8.88,5.55,16.48,13.91,20.84c14.82,7.73,30.93,1.61,36.75-14.05
		c2.72-7.32,4.47-15.02,7.39-22.25c3.21-7.96,9.72-11.3,17.51-10.04c7.51,1.22,12.23,6.37,13.2,14.81
		c1.15,9.95,0.3,19.66-4.61,28.64c-2.73,4.99,1.71,5.32,4.23,7c2.84,1.89,4.38,0.88,5.74-1.98
		C222.41,326.23,224.15,317.34,224.25,308.07z M81.69,387.37c4.85-0.05,9.65-0.63,14.36-1.7c12.51-2.83,20.35-11.66,21.34-23.9
		c1.15-14.14-4.64-24.22-16.79-29.29c-9.89-4.13-20.23-4.26-30.49-2.56c-16.26,2.7-24.93,12.13-25.51,26.67
		c-0.57,14.22,7.44,25.16,21.25,28.83C71.03,386.79,76.33,387.36,81.69,387.37z M80.66,649.76c10.32,0,20.64-0.15,30.96,0.08
		c3.75,0.08,4.48-1.55,4.41-4.77c-0.06-3.14-0.21-5.46-4.46-5.32c-7.81,0.26-15.65-0.12-23.46,0.12c-3.64,0.11-5.05-0.85-4.89-4.7
		c0.29-6.81,0.31-13.65,0.04-20.47c-0.15-3.84,0.91-5.27,4.96-5.12c7.98,0.3,15.98-0.07,23.96,0.14c4.35,0.11,3.69-2.74,3.79-5.33
		c0.11-2.74-0.15-4.81-3.89-4.79c-20.64,0.13-41.28,0.16-61.91,0.02c-4.41-0.03-4.06,2.53-4.21,5.51c-0.17,3.43,0.96,4.73,4.52,4.61
		c6.98-0.23,13.98,0.03,20.97-0.11c2.91-0.06,4.21,0.78,4.16,3.91c-0.13,7.32-0.16,14.65,0.1,21.97c0.13,3.62-1.26,4.48-4.63,4.38
		c-6.98-0.22-13.98,0.05-20.97-0.09c-4.36-0.09-4.04,2.7-4.16,5.66c-0.13,3.18,0.9,4.42,4.25,4.36
		C60.35,649.65,70.5,649.76,80.66,649.76z M72.51,489.54c0,0.04,0,0.09,0,0.13c-7.5,0-15-0.03-22.5,0.02c-1.41,0.01-3-0.35-3.8,1.55
		c-2.02,4.77,0.32,8.42,5.57,8.43c12.5,0.02,25,0.07,37.5-0.05c3.65-0.04,7.33-0.4,10.93-0.97c9.77-1.53,15.25-6.81,16.78-16.5
		c0.99-6.28,1.05-12.62-1.25-18.75c-2.33-6.23-6.81-10.13-13.09-12.02c-3.84-1.16-7.76-1.84-11.81-1.83
		c-13.33,0.03-26.67,0.15-40-0.12c-4.16-0.08-4.98,1.48-4.92,5.21c0.06,3.84,2.25,3.75,4.91,3.75c14.33,0.03,28.67-0.03,42.99,0.27
		c5.96,0.13,11.75,1.52,14.65,7.69c5.57,11.84-0.52,22.43-13.48,23.11C87.53,489.86,80.01,489.54,72.51,489.54z M81.13,705.47
		c10.16,0,20.32-0.1,30.48,0.06c3.21,0.05,4.44-0.95,4.4-4.25c-0.14-11.83-0.13-23.65-0.03-35.48c0.03-3.15-0.94-4.4-4.3-4.37
		c-3.46,0.03-3.66,1.82-3.64,4.43c0.07,8.5-0.09,16.99,0.09,25.49c0.07,3.3-1.1,4.38-4.34,4.26c-5.49-0.2-11-0.16-16.49,0.01
		c-3.04,0.09-4.12-1.07-4.03-4.09c0.17-5.66-0.02-11.33,0.06-16.99c0.04-2.66-0.8-3.94-3.72-3.92c-2.94,0.03-4.2,0.93-4.08,4.07
		c0.19,5.32-0.12,10.66,0.05,15.99c0.11,3.54-0.91,5.22-4.8,4.94c-4.14-0.31-8.33-0.26-12.49-0.02c-3.59,0.21-4.58-1.28-4.51-4.68
		c0.18-7.99,0-15.99,0.07-23.99c0.02-2.7-0.5-4.32-3.81-4.37c-3.53-0.05-4.12,1.57-4.09,4.57c0.11,11.33,0.16,22.66-0.01,33.98
		c-0.06,3.6,1.32,4.5,4.69,4.44C60.81,705.36,70.97,705.47,81.13,705.47z M117.49,744.07c0.05-6.07-2.14-8.86-9.89-11.25
		c-18.75-5.78-37.58-11.28-56.33-17.04c-3.71-1.14-4.88-0.08-5.55,3.6c-0.63,3.5,0.97,4.23,3.68,5.02
		c18.52,5.39,37.01,10.88,55.48,16.41c1.49,0.45,4,0.43,4.06,2.26c0.07,2.23-2.52,2.22-4.17,2.73c-8.57,2.65-17.17,5.24-25.76,7.84
		c-10.18,3.08-20.36,6.19-30.56,9.22c-5.34,1.58-2.14,5.36-2.14,8.23c-0.01,2.54,1.83,2.28,3.55,1.75
		c20.35-6.23,40.71-12.41,61.02-18.74C115.61,752.63,117.59,748.93,117.49,744.07z M117.56,298.74c0.18-5.41-0.48-10.67-3.02-15.52
		c-4.11-7.82-10.94-10.73-19.45-10.52c-7.9,0.2-13.18,4.16-15.96,11.39c-2.14,5.59-3.82,11.36-5.99,16.93
		c-2.28,5.83-6.12,8.17-11.49,7.52c-5.06-0.61-8.33-4.21-9.19-10.31c-0.87-6.26-0.02-12.31,2.87-17.96
		c1.51-2.95-0.51-3.67-2.45-4.82c-2.38-1.41-3.7-0.62-4.61,1.66c-3.48,8.72-4.97,17.66-2.23,26.85c1.09,3.64,2.77,7.09,5.84,9.69
		c10.97,9.29,26.07,4.5,30.88-9.87c1.69-5.04,2.51-10.38,5.05-15.12c2.67-4.98,6.89-6.91,12.54-5.97c4.74,0.79,7.92,4.16,8.88,9.5
		c1.34,7.45,0.45,14.65-3.05,21.35c-1.65,3.16,0.14,3.92,2.38,5.14c2.46,1.34,3.8,1.03,5.04-1.57
		C116.39,311.29,117.39,305.12,117.56,298.74z M80.49,548.86c-4.19-0.31-8.35-0.53-12.43-1.46c-12.38-2.82-17.85-11.21-15.3-23.65
		c0.53-2.59,1.35-5.17,2.44-7.57c1.35-2.96-0.99-3.4-2.58-4.33c-1.87-1.1-3.23-0.81-4.43,1.34c-9.78,17.49-1.15,38.8,18.07,44.08
		c10.16,2.8,20.46,2.61,30.64,0.06c6.24-1.56,11.95-4.41,15.57-10.05c7.5-11.67,6.48-23.61,0.77-35.61
		c-0.83-1.75-1.94-2.87-3.81-1.45c-1.49,1.14-4.63,1.33-3,4.59c0.6,1.19,1.2,2.4,1.59,3.66c4.45,14.66,0.97,26.82-16.61,29.35
		C87.79,548.34,84.13,548.52,80.49,548.86z M81.17,433.57c10.15,0,20.3-0.11,30.44,0.07c3.26,0.06,4.42-1.01,4.39-4.26
		c-0.12-12.14-0.11-24.29-0.02-36.43c0.02-2.92-0.9-4.15-4.02-4.14c-3.14,0.01-3.98,1.28-3.94,4.19c0.12,8.48-0.19,16.98,0.12,25.45
		c0.16,4.25-1.31,5.31-5.37,5.26c-17.47-0.21-34.94,0.02-52.4-0.19c-4.26-0.05-4.39,2.1-4.41,5.25c-0.02,3.09,0.41,4.96,4.26,4.88
		C60.54,433.42,70.86,433.56,81.17,433.57z M81.01,583.1c9.98,0,19.97-0.11,29.94,0.06c3.43,0.06,5.26-0.52,5.13-4.56
		c-0.11-3.55-0.61-5.39-4.91-5.34c-20.13,0.22-40.26,0.18-60.39,0.02c-3.75-0.03-4.79,1.25-4.9,4.88c-0.12,4.04,1.33,5.09,5.17,5.01
		C61.04,582.94,71.02,583.1,81.01,583.1z M41.89,582.33c-0.21-0.38-0.39-0.85-0.69-1.21c-3.58-4.33-7.19-8.64-10.77-12.96
		c-1.46-1.76-2.73-0.86-3.55,0.48c-1.11,1.84-5.07,3.11-2.22,5.95c3.85,3.84,8.22,7.16,12.37,10.69c1,0.85,2.06,1.04,3.08,0.01
		C40.92,584.48,41.76,583.66,41.89,582.33z"/>
	<path fill="#EC1D23" d="M135.11,1107.05c-17.67-0.25-35.02-3.99-49.97-15.41c-20.14-15.38-20.06-39.03,0.26-54.18
		c17.83-13.28,38.33-16.1,59.79-14.43c16.66,1.3,32.01,6.2,44.6,17.75c15.18,13.93,15.26,33.73,0.06,47.72
		c-12.82,11.81-28.58,16.57-45.54,18.11C141.49,1106.87,138.65,1106.89,135.11,1107.05z M130.08,1102.43
		c-7.37-10.18-9.81-20.45-9.99-31.21c-0.09-5.33-1.72-7.48-7.21-8.7c-10.93-2.43-22.05-5.41-26.5-17.92
		c-8.86,10.53-9.54,24.64-1.32,35.72C95.83,1094.84,111.28,1100.35,130.08,1102.43z M141.54,1101.81
		c5.97,0.53,10.82-0.79,15.54-2.24c13.93-4.28,26.05-11.12,32.4-25.17c4.71-10.43,2.66-22.72-5.07-29.73
		c-1.55,7.75-7.45,11.14-13.7,14.09c-4.69,2.21-9.7,3.58-14.77,4.44c-3.26,0.55-4.34,1.9-4.45,5.18
		C151.08,1080.1,149.37,1091.53,141.54,1101.81z M173.37,1041.25c0.08-2.21-1.12-3.76-2.66-5.12c-3.21-2.82-7.09-4.3-11.11-5.4
		c-13.37-3.66-26.9-3.88-40.52-1.66c-5.94,0.97-11.76,2.45-16.85,5.79c-5.86,3.83-5.94,8.62-0.31,12.74
		c4.11,3.01,9.05,3.98,13.85,5.35c3.46,0.99,5.13,0.45,5.71-3.48c0.81-5.44,2.64-10.66,5.82-15.25c5.4-7.8,11.74-7.67,16.87,0.25
		c3.13,4.83,4.77,10.2,5.89,15.78c0.38,1.91,0.79,3.73,3.41,3.14c5.69-1.27,11.37-2.57,16.26-6
		C171.84,1045.9,173.48,1044.08,173.37,1041.25z M134.5,1065.17c-1.2-0.05-3.69-0.14-6.17-0.28c-1.49-0.08-2.87,0.18-2.77,1.97
		c0.4,7.18,1.25,14.31,6.14,20.07c2.58,3.04,5.56,2.68,8.11-0.18c2.72-3.06,3.94-6.84,4.8-10.79c2.39-10.88,2.42-10.88-8.32-10.79
		C136.12,1065.17,135.96,1065.17,134.5,1065.17z M135.54,1054.87c10.65,0.04,11.18-0.79,6.77-10.39c-1.36-2.96-2.9-5.97-6.57-6.05
		c-3.72-0.08-5.31,2.97-6.69,5.88C124.56,1053.84,125.18,1054.83,135.54,1054.87z"/>
	<path fill="#EC1D23" d="M136.09,1134.97c-0.12-8.8,6.43-15.49,15.24-15.58c8.94-0.09,15.67,6.67,15.69,15.76
		c0.02,7.99-7.15,15.14-15.33,15.29C143.38,1150.6,136.2,1143.48,136.09,1134.97z M142.91,1134.85c0.02,6.02,3.48,9.98,8.69,9.93
		c5.17-0.05,8.65-4.09,8.65-10.05c0-5.83-3.66-10-8.75-9.96C146.35,1124.8,142.89,1128.86,142.91,1134.85z"/>
	<path fill="#EC1D23" d="M89.61,1119.39c8.57,0.07,15.47,7.12,15.34,15.65c-0.13,8.5-7.19,15.36-15.76,15.32
		c-8.44-0.04-15.39-7.24-15.23-15.77C74.13,1125.79,80.79,1119.32,89.61,1119.39z M98.15,1134.73c-0.02-5.85-3.79-10.07-8.89-9.95
		c-5,0.12-8.47,4.09-8.54,9.77c-0.07,6.02,3.41,10.16,8.59,10.22C94.4,1144.83,98.17,1140.56,98.15,1134.73z"/>
	<path fill="#EC1D23" d="M208.83,1120.21c2.99-0.47,4.27,1.14,5.23,3.6c2.77,7.13,5.76,14.18,8.51,21.33
		c0.48,1.24,2.68,3.18,0.1,4.05c-1.94,0.65-5.24,1.46-5.96-1.65c-1.52-6.57-6.53-3.99-10.41-4.55c-3.55-0.52-5.09,1.24-5.97,4.43
		c-0.91,3.32-3.95,2.33-5.87,1.81c-2.69-0.74-0.59-2.78-0.11-4.02c2.69-6.99,5.76-13.84,8.31-20.87
		C203.83,1121.05,205.67,1119.77,208.83,1120.21z M208.41,1126.39c-1.36,3.36-2.22,5.65-3.2,7.89c-1.26,2.89-0.28,3.66,2.73,3.76
		c4.07,0.13,5.2-1.09,3.32-4.83C210.34,1131.37,209.67,1129.41,208.41,1126.39z"/>
	<path fill="#EC1D23" d="M120.37,1131.95c5.1-3.49,3.96-14.03,14.32-11.44c-1.73,4.51-4.62,8.14-7.14,11.9
		c-2.58,3.84-4.44,7.66-3.91,12.48c0.25,2.26,0.26,4.76-3.42,4.69c-3.53-0.07-3.12-2.46-2.88-4.51c0.54-4.59-0.9-8.43-3.57-12.06
		c-1.87-2.54-3.55-5.25-5.05-8.03c-0.73-1.36-3.29-3.1-1.21-4.4c1.96-1.23,4.87-1.17,6.63,1.45
		C116.34,1125.3,117.54,1129.21,120.37,1131.95z"/>
	<path fill="#EC1D23" d="M59.64,1120.11c2.99,0,5.98,0.01,8.97,0c1.97-0.01,3.58,0.13,3.51,2.88c-0.07,2.55-1.67,2.71-3.33,2.41
		c-5.52-0.99-6.41,1.92-6.14,6.5c0.28,4.63,0.03,9.3,0.12,13.94c0.05,2.4-0.61,3.63-3.36,3.66c-2.9,0.03-3.21-1.47-3.18-3.74
		c0.07-5.31-0.18-10.64,0.08-15.93c0.18-3.57-1.18-4.64-4.57-4.46c-1.8,0.1-4.71,1.25-4.72-2.48c-0.01-3.52,2.66-2.71,4.65-2.79
		c2.65-0.11,5.31-0.03,7.97-0.03C59.64,1120.09,59.64,1120.1,59.64,1120.11z"/>
	<path fill="#EC1D23" d="M181.44,1120.1c3.16,0,6.32-0.05,9.47,0.02c1.78,0.04,3.21,0.45,3.17,2.83c-0.04,2.45-1.5,2.81-3.28,2.48
		c-5.75-1.05-6.57,1.97-6.18,6.73c0.35,4.29,0.09,8.64,0.06,12.96c-0.01,2.17,0.27,4.35-3.14,4.39c-3.31,0.04-3.29-1.9-3.27-4.21
		c0.04-4.65-0.19-9.32,0.08-13.96c0.25-4.24-0.74-6.68-5.64-5.96c-1.24,0.18-3.22,0.83-3.6-1.46c-0.35-2.16-0.24-3.99,2.85-3.82
		c3.15,0.18,6.31,0.04,9.47,0.04C181.44,1120.13,181.44,1120.11,181.44,1120.1z"/>
	<path fill="#EC1D23" d="M173.48,507.32c-11,0-22-0.16-32.99,0.08c-4.05,0.09-5.29-1.34-5.05-5.2c0.34-5.48,0.06-11,0.45-16.47
		c0.78-10.85,6.84-18.17,16.87-21.35c13.95-4.41,28.25-4.57,42.27,0.05c10.52,3.46,15.73,11.28,16.16,22.23
		c0.22,5.49-0.08,11,0.16,16.49c0.15,3.38-1.21,4.27-4.38,4.23C195.81,507.24,184.65,507.33,173.48,507.32z"/>
	<path fill="#EC1D23" d="M176.05,365.03c9.08,0.52,17.22,1,24.74,4.77c16.24,8.15,17.77,30.06,2.74,40.27
		c-5.66,3.84-12.12,5.32-18.83,6c-11.86,1.2-23.67,1.26-35.03-2.88c-10.69-3.89-15.67-11.04-15.79-21.78
		c-0.13-10.9,4.91-18.21,15.58-22.5C158.31,365.35,167.61,364.97,176.05,365.03z"/>
	<path fill="#EC1D23" d="M180.77,575.76c0,3.99-0.02,7.98,0.01,11.97c0.02,2.37-0.3,3.81-3.4,2.84c-12.84-4-25.76-7.77-38.63-11.7
		c-1.51-0.46-3.58-0.74-3.56-2.89c0.03-2.27,2.03-2.79,3.8-3.33c12.71-3.86,25.43-7.67,38.13-11.58c2.68-0.83,3.68-0.01,3.62,2.72
		c-0.09,3.99-0.02,7.98-0.02,11.97C180.73,575.76,180.75,575.76,180.77,575.76z"/>
	<path fill="#EC1D23" d="M80.56,339.62c5.59,0.02,10.25,0.22,14.8,1.37c9.21,2.32,14.63,8.75,14.57,17.19
		c-0.06,8.44-5.53,14.99-14.74,17.08c-9.71,2.2-19.49,2.29-29.19-0.18c-8.47-2.15-13.43-7.87-13.77-15.62
		c-0.38-8.68,3.82-14.64,12.52-17.61C70.17,340.01,75.79,339.47,80.56,339.62z"/>
</g>
</svg>
